<svg xmlns="http://www.w3.org/2000/svg" viewBox="0 0 5582.76 7362.08"><defs><style>.cls-1{fill:#fff;}</style></defs><title>personasElement 3</title><g id="Ebene_2" data-name="Ebene 2"><g id="Ebene_1-2" data-name="Ebene 1"><path class="cls-1" d="M529.79,6469.36c-160.29-495.17-48-924.37-48-924.37,22.48-86,46.07-140.07,72-264.11,40-191.09,59-421.07,24-708.28C504.74,3973,216.67,3292,97.62,2627.82c-94.29-526-224.8-1254.12,180.07-1872.75,50-76.46,390.18-579.76,1008.4-720.29,426.88-97,783.21,25.08,1200.48,168.07,592.3,203,586.56,362.91,1116.45,516.21,593.36,171.66,709.67,2.67,1068.43,192.08,498.5,263.19,689.47,808.87,780.31,1068.43,251.15,717.63,72.66,1349.15,24,1512.61-71,238.53-100.12,198.68-144.06,384.15C5181,4512.65,5551.52,4864.25,5559.8,5400.93c8.44,546.81-364.15,965.25-552.22,1176.47C3789.63,7945.26,789.24,7270.85,529.79,6469.36Z"/></g></g></svg>